# xmcd
#
# Track frame offsets: 
#        150
#        16843
#        40168
#
# Disc length: 882 seconds
#
# Revision: 2
# Processed by: cddbd v1.5.2PL0 Copyright (c) Steve Scherf et al.
# Submitted via: ExactAudioCopyFreeDBPlugin 1.0
#
DISCID=17037003
DTITLE=Van Halen - Humans Being
DYEAR=1996
DGENRE=Hard Rock
TTITLE0=Humans Being(Album version)
TTITLE1=Humans Being(Movie version)
TTITLE2=Respect The Wind(Album version)
EXTD=
EXTT0=
EXTT1=
EXTT2=
PLAYORDER=
